<svg xmlns="http://www.w3.org/2000/svg" width="750" height="243" viewBox="0 0 750 243"><g transform="translate(-420 -53.66)"><g transform="translate(420 53.66)" fill="#fff" stroke="rgba(112,112,112,0)" stroke-width="1"><rect width="750" height="243" stroke="none"/><rect x="0.5" y="0.5" width="749" height="242" fill="none"/></g><g transform="translate(461 82.66)"><path d="M9.294.711A2.375,2.375,0,0,1,7.553-.015a2.375,2.375,0,0,1-.727-1.741A2.355,2.355,0,0,1,7.561-3.5a2.4,2.4,0,0,1,1.733-.719,2.4,2.4,0,0,1,1.733.719,2.355,2.355,0,0,1,.734,1.748,2.375,2.375,0,0,1-.727,1.741A2.375,2.375,0,0,1,9.294.711Zm14.259-13.82a9.247,9.247,0,0,1,3.1-3.194,6.573,6.573,0,0,1,3.315-1.075,5.1,5.1,0,0,1,3.814,1.832q1.7,1.832,1.7,5.555a11.8,11.8,0,0,1-1.128,5.245,9.493,9.493,0,0,1-3,3.648A7.794,7.794,0,0,1,26.7.242q-.787,0-2.422-.167Q24.037.045,23.553,0V6.569H20.737V-16.908h2.815Zm0,3.345v7.25a11.357,11.357,0,0,0,2.815.394,5.493,5.493,0,0,0,4.306-2.006,8.067,8.067,0,0,0,1.748-5.487,6.293,6.293,0,0,0-.954-3.8A2.706,2.706,0,0,0,29.3-14.683a4.7,4.7,0,0,0-2.9,1.332A12.909,12.909,0,0,0,23.553-9.763ZM40.99,0V-16.908h2.815v3.693a9.462,9.462,0,0,1,3.02-3.126,7.148,7.148,0,0,1,3.792-1.037,10.373,10.373,0,0,1,3.058.469v6.1H50.965v-3.86a7.1,7.1,0,0,0-1.12-.121,4.846,4.846,0,0,0-3.088,1.241,13.572,13.572,0,0,0-2.952,3.724V0ZM65.118.469a7.281,7.281,0,0,1-5.812-2.535,9.462,9.462,0,0,1-2.18-6.4,9.433,9.433,0,0,1,2.18-6.388,7.291,7.291,0,0,1,5.813-2.528,7.274,7.274,0,0,1,5.8,2.528A9.433,9.433,0,0,1,73.1-8.461a9.462,9.462,0,0,1-2.18,6.4A7.264,7.264,0,0,1,65.118.469Zm0-2.346a4.27,4.27,0,0,0,3.587-1.756,7.82,7.82,0,0,0,1.332-4.829,7.792,7.792,0,0,0-1.332-4.813,4.27,4.27,0,0,0-3.587-1.756,4.285,4.285,0,0,0-3.6,1.756,7.792,7.792,0,0,0-1.332,4.813,7.82,7.82,0,0,0,1.332,4.829A4.285,4.285,0,0,0,65.118-1.877ZM88.05-3.8a9.1,9.1,0,0,1-3.1,3.194A6.612,6.612,0,0,1,81.632.469a5.076,5.076,0,0,1-3.807-1.832q-1.688-1.832-1.688-5.555a11.864,11.864,0,0,1,1.12-5.245,9.432,9.432,0,0,1,3-3.648A7.794,7.794,0,0,1,84.9-17.15q.8,0,2.422.167.242.03.727.076v-7.523h2.831V0H88.05Zm0-3.345V-14.4a11.009,11.009,0,0,0-2.785-.394,5.487,5.487,0,0,0-4.337,2.013A8.119,8.119,0,0,0,79.2-7.3,6.337,6.337,0,0,0,80.141-3.5,2.684,2.684,0,0,0,82.3-2.225,4.725,4.725,0,0,0,85.2-3.557,12.625,12.625,0,0,0,88.05-7.145Zm21.222-9.763V0h-2.815V-3.708a10.14,10.14,0,0,1-3.027,3.133A6.224,6.224,0,0,1,100.1.469a4.915,4.915,0,0,1-2.717-.795,4.193,4.193,0,0,1-1.718-2.089,17.026,17.026,0,0,1-.484-5.048v-9.445H98v9.793A13.774,13.774,0,0,0,98.23-3.9a2.525,2.525,0,0,0,.863,1.279,2.135,2.135,0,0,0,1.355.5,5.166,5.166,0,0,0,3.186-1.4,11.308,11.308,0,0,0,2.823-3.534v-9.854ZM128.193-.484A16.88,16.88,0,0,1,122.8.469,8.679,8.679,0,0,1,118.286-.7a8.284,8.284,0,0,1-3.08-3.179,9.3,9.3,0,0,1-1.1-4.564,8.732,8.732,0,0,1,2.505-6.388,8.179,8.179,0,0,1,6.047-2.543,17.37,17.37,0,0,1,5.54.984v2.709a12.951,12.951,0,0,0-5.283-1.347,5.847,5.847,0,0,0-2.906.764,5.025,5.025,0,0,0-2.1,2.384,7.917,7.917,0,0,0-.742,3.33,7.558,7.558,0,0,0,1.43,4.359,5.07,5.07,0,0,0,4.488,2.074,12.722,12.722,0,0,0,1.816-.129,22.713,22.713,0,0,0,3.3-.946Zm18.512-.2a15.776,15.776,0,0,1-2.876.991A9.847,9.847,0,0,1,142.1.469a7.6,7.6,0,0,1-3.239-.681,4.766,4.766,0,0,1-2.218-2.013,8.7,8.7,0,0,1-.749-4.117v-6.812h-4.223V-15.5H135.9v-6.812h2.815V-15.5h7.523v2.346h-7.523v6.766A6.179,6.179,0,0,0,139.2-3.5a2.985,2.985,0,0,0,1.294,1.234,4.338,4.338,0,0,0,1.915.394,8.7,8.7,0,0,0,4.3-1.287ZM152.26-8.34v-2.346h11.746V-8.34ZM184-.484a16.88,16.88,0,0,1-5.389.954A8.679,8.679,0,0,1,174.095-.7a8.284,8.284,0,0,1-3.08-3.179,9.3,9.3,0,0,1-1.1-4.564,8.732,8.732,0,0,1,2.505-6.388,8.179,8.179,0,0,1,6.047-2.543,17.37,17.37,0,0,1,5.54.984v2.709a12.951,12.951,0,0,0-5.283-1.347,5.847,5.847,0,0,0-2.906.764,5.025,5.025,0,0,0-2.1,2.384,7.918,7.918,0,0,0-.742,3.33,7.558,7.558,0,0,0,1.43,4.359,5.07,5.07,0,0,0,4.488,2.074,12.723,12.723,0,0,0,1.816-.129,22.712,22.712,0,0,0,3.3-.946ZM199.487-3.8a9.1,9.1,0,0,1-3.1,3.194A6.612,6.612,0,0,1,193.069.469a5.076,5.076,0,0,1-3.807-1.832q-1.688-1.832-1.688-5.555a11.864,11.864,0,0,1,1.12-5.245,9.432,9.432,0,0,1,3-3.648,7.794,7.794,0,0,1,4.647-1.34q.8,0,2.422.167.242.03.727.076h2.831V-4.965A16.047,16.047,0,0,0,202.953,0h-2.937A26.351,26.351,0,0,1,199.487-3.8Zm0-3.345V-14.4a11.009,11.009,0,0,0-2.785-.394,5.487,5.487,0,0,0-4.337,2.013A8.119,8.119,0,0,0,190.632-7.3a6.337,6.337,0,0,0,.946,3.792,2.684,2.684,0,0,0,2.157,1.279,4.725,4.725,0,0,0,2.906-1.332A12.625,12.625,0,0,0,199.487-7.145ZM208.417,0V-16.908h2.815v3.693a9.462,9.462,0,0,1,3.02-3.126,7.148,7.148,0,0,1,3.792-1.037,10.373,10.373,0,0,1,3.058.469v6.1h-2.709v-3.86a7.1,7.1,0,0,0-1.12-.121,4.846,4.846,0,0,0-3.088,1.241,13.572,13.572,0,0,0-2.952,3.724V0Zm28.457-3.8a9.1,9.1,0,0,1-3.1,3.194A6.612,6.612,0,0,1,230.457.469a5.076,5.076,0,0,1-3.807-1.832q-1.688-1.832-1.688-5.555a11.864,11.864,0,0,1,1.12-5.245,9.432,9.432,0,0,1,3-3.648,7.794,7.794,0,0,1,4.647-1.34q.8,0,2.422.167.242.03.727.076v-7.523h2.831V0h-2.831Zm0-3.345V-14.4a11.009,11.009,0,0,0-2.785-.394,5.487,5.487,0,0,0-4.337,2.013A8.119,8.119,0,0,0,228.02-7.3a6.337,6.337,0,0,0,.946,3.792,2.684,2.684,0,0,0,2.157,1.279,4.725,4.725,0,0,0,2.906-1.332A12.625,12.625,0,0,0,236.875-7.145Zm6.04,9.491V0h16.438V2.346Zm18.6,0V0h16.438V2.346ZM285.933,0V-22.069h-5.056v-2.361h7.871V-2.346h5.283V0Zm18.8,0V-14.562H300.04v-2.346h7.508V-2.346h4.708V0Zm-.469-23.008a1.638,1.638,0,0,1,.651-1.423,2.131,2.131,0,0,1,1.226-.469,2.147,2.147,0,0,1,1.241.469,1.638,1.638,0,0,1,.651,1.423,1.622,1.622,0,0,1-.651,1.408,2.147,2.147,0,0,1-1.241.469,2.131,2.131,0,0,1-1.226-.469A1.622,1.622,0,0,1,304.263-23.008ZM319.354,0V-24.431h2.815V-9.082l8.128-7.826h3.754l-8.113,7.826L334.264,0h-3.875L322.17-9.082V0Zm31.908-1.12a14.915,14.915,0,0,1-6.388,1.6,7.5,7.5,0,0,1-4.087-1.135A8.092,8.092,0,0,1,337.9-3.9a9.766,9.766,0,0,1-1.082-4.518,10.125,10.125,0,0,1,1.029-4.45,7.956,7.956,0,0,1,2.876-3.323,7.449,7.449,0,0,1,4.117-1.188,6.027,6.027,0,0,1,4.836,2.149Q351.5-13.078,351.5-8.6v.605H339.85a7.014,7.014,0,0,0,.734,3.209,5.218,5.218,0,0,0,1.93,2.18,5.142,5.142,0,0,0,2.725.727,12.692,12.692,0,0,0,6.024-1.816ZM340.016-10.1h8.431V-10.5a5.017,5.017,0,0,0-1.014-3.3,3.337,3.337,0,0,0-2.709-1.226,4.044,4.044,0,0,0-2.959,1.249A7.106,7.106,0,0,0,340.016-10.1ZM356.894-8.34v-2.346H368.64V-8.34Zm20.117-4.768a9.247,9.247,0,0,1,3.1-3.194,6.573,6.573,0,0,1,3.315-1.075,5.1,5.1,0,0,1,3.814,1.832q1.7,1.832,1.7,5.555a11.8,11.8,0,0,1-1.128,5.245,9.493,9.493,0,0,1-3,3.648,7.794,7.794,0,0,1-4.647,1.34q-.787,0-2.422-.167-.242-.03-.727-.076h-2.815V-24.431h2.815Zm0,3.345v7.25a11.357,11.357,0,0,0,2.815.394,5.493,5.493,0,0,0,4.306-2.006,8.067,8.067,0,0,0,1.748-5.487,6.293,6.293,0,0,0-.954-3.8,2.706,2.706,0,0,0-2.165-1.271,4.7,4.7,0,0,0-2.9,1.332A12.909,12.909,0,0,0,377.01-9.763Zm29.91-7.145V0H404.1V-3.708a10.14,10.14,0,0,1-3.027,3.133,6.224,6.224,0,0,1-3.33,1.044,4.915,4.915,0,0,1-2.717-.795,4.193,4.193,0,0,1-1.718-2.089,17.027,17.027,0,0,1-.484-5.048v-9.445h2.815v9.793a13.775,13.775,0,0,0,.235,3.217,2.525,2.525,0,0,0,.863,1.279,2.135,2.135,0,0,0,1.355.5,5.166,5.166,0,0,0,3.186-1.4A11.308,11.308,0,0,0,404.1-7.054v-9.854ZM425.75-.681a15.776,15.776,0,0,1-2.876.991,9.846,9.846,0,0,1-1.726.159,7.6,7.6,0,0,1-3.239-.681,4.766,4.766,0,0,1-2.218-2.013,8.7,8.7,0,0,1-.749-4.117v-6.812H410.72V-15.5h4.223v-6.812h2.815V-15.5h7.523v2.346h-7.523v6.766a6.179,6.179,0,0,0,.484,2.884,2.985,2.985,0,0,0,1.294,1.234,4.338,4.338,0,0,0,1.915.394,8.7,8.7,0,0,0,4.3-1.287Zm18.6,0a15.776,15.776,0,0,1-2.876.991,9.846,9.846,0,0,1-1.726.159,7.6,7.6,0,0,1-3.239-.681A4.766,4.766,0,0,1,434.3-2.225a8.7,8.7,0,0,1-.749-4.117v-6.812h-4.223V-15.5h4.223v-6.812h2.815V-15.5h7.523v2.346h-7.523v6.766a6.179,6.179,0,0,0,.484,2.884,2.985,2.985,0,0,0,1.294,1.234,4.338,4.338,0,0,0,1.915.394,8.7,8.7,0,0,0,4.3-1.287ZM455.782.469a7.281,7.281,0,0,1-5.812-2.535,9.462,9.462,0,0,1-2.18-6.4,9.433,9.433,0,0,1,2.18-6.388,7.291,7.291,0,0,1,5.813-2.528,7.274,7.274,0,0,1,5.8,2.528,9.433,9.433,0,0,1,2.18,6.388,9.462,9.462,0,0,1-2.18,6.4A7.264,7.264,0,0,1,455.782.469Zm0-2.346a4.27,4.27,0,0,0,3.587-1.756A7.82,7.82,0,0,0,460.7-8.461a7.792,7.792,0,0,0-1.332-4.813,4.27,4.27,0,0,0-3.587-1.756,4.285,4.285,0,0,0-3.6,1.756,7.792,7.792,0,0,0-1.332,4.813,7.82,7.82,0,0,0,1.332,4.829A4.285,4.285,0,0,0,455.782-1.877ZM467.422,0V-16.908h2.815v3.693a9.554,9.554,0,0,1,2.921-3.058,6.264,6.264,0,0,1,3.421-1.1,4.9,4.9,0,0,1,2.725.795,4.25,4.25,0,0,1,1.718,2.081,16.768,16.768,0,0,1,.492,5.056V0H478.7V-9.793a13.775,13.775,0,0,0-.235-3.217,2.525,2.525,0,0,0-.863-1.279,2.154,2.154,0,0,0-1.37-.5,5.152,5.152,0,0,0-3.186,1.408,11.265,11.265,0,0,0-2.808,3.527V0Zm19.693-8.34v-2.346h11.746V-8.34Zm18.6,0v-2.346h11.746V-8.34ZM527.772,0V-22.069h-5.056v-2.361h7.871V-2.346h5.283V0Zm18.8,0V-14.562h-4.692v-2.346h7.508V-2.346h4.708V0ZM546.1-23.008a1.638,1.638,0,0,1,.651-1.423,2.131,2.131,0,0,1,1.226-.469,2.147,2.147,0,0,1,1.241.469,1.638,1.638,0,0,1,.651,1.423,1.622,1.622,0,0,1-.651,1.408,2.147,2.147,0,0,1-1.241.469,2.131,2.131,0,0,1-1.226-.469A1.622,1.622,0,0,1,546.1-23.008ZM561.194,0V-24.431h2.815V-9.082l8.128-7.826h3.754l-8.113,7.826L576.1,0h-3.875l-8.219-9.082V0ZM593.1-1.12a14.915,14.915,0,0,1-6.388,1.6,7.5,7.5,0,0,1-4.087-1.135A8.092,8.092,0,0,1,579.744-3.9a9.766,9.766,0,0,1-1.082-4.518,10.124,10.124,0,0,1,1.029-4.45,7.956,7.956,0,0,1,2.876-3.323,7.449,7.449,0,0,1,4.117-1.188,6.027,6.027,0,0,1,4.836,2.149q1.824,2.149,1.824,6.63v.605H581.689a7.013,7.013,0,0,0,.734,3.209,5.218,5.218,0,0,0,1.93,2.18,5.142,5.142,0,0,0,2.725.727A12.693,12.693,0,0,0,593.1-3.693ZM581.855-10.1h8.431V-10.5a5.018,5.018,0,0,0-1.014-3.3,3.337,3.337,0,0,0-2.709-1.226,4.044,4.044,0,0,0-2.959,1.249A7.106,7.106,0,0,0,581.855-10.1Zm27.08,6.3a9.1,9.1,0,0,1-3.1,3.194A6.612,6.612,0,0,1,602.517.469a5.076,5.076,0,0,1-3.807-1.832q-1.688-1.832-1.688-5.555a11.863,11.863,0,0,1,1.12-5.245,9.432,9.432,0,0,1,3-3.648,7.794,7.794,0,0,1,4.647-1.34q.8,0,2.422.167.242.03.727.076v-7.523h2.831V0h-2.831Zm0-3.345V-14.4a11.009,11.009,0,0,0-2.785-.394,5.487,5.487,0,0,0-4.337,2.013A8.119,8.119,0,0,0,600.08-7.3a6.338,6.338,0,0,0,.946,3.792,2.684,2.684,0,0,0,2.157,1.279,4.725,4.725,0,0,0,2.906-1.332A12.625,12.625,0,0,0,608.935-7.145Z" transform="translate(0 86.508)" fill="#aa5d00"/><path d="M8.28-9.627a7.783,7.783,0,0,1,2.066,1.453,5.243,5.243,0,0,1,.984,1.461A4.276,4.276,0,0,1,11.655-5a11.134,11.134,0,0,1-.3,2.255l-.378,1.726a11.054,11.054,0,0,0-.3,2.089,2.025,2.025,0,0,0,.719,1.567,4.71,4.71,0,0,0,2.959.643H16.7V5.631H14.319q-4.147,0-5.343-1.332a4.389,4.389,0,0,1-1.2-3.012A8.953,8.953,0,0,1,8.007-.636L8.28-1.847l.257-1.317.182-.8a5.858,5.858,0,0,0,.106-1.09,3.375,3.375,0,0,0-.946-2.407,4.5,4.5,0,0,0-3.338-1H3.194v-2.346H4.541a4.547,4.547,0,0,0,3.323-.984,3.369,3.369,0,0,0,.961-2.452,5.241,5.241,0,0,0-.106-1.06l-.182-.787L8.28-17.407l-.272-1.211a9.16,9.16,0,0,1-.227-1.937,4.4,4.4,0,0,1,1.2-3q1.2-1.34,5.343-1.34H16.7v2.361H14.35A4.713,4.713,0,0,0,11.4-21.9a2.031,2.031,0,0,0-.727,1.582,11.046,11.046,0,0,0,.3,2.074l.378,1.726a11.134,11.134,0,0,1,.3,2.255,4.276,4.276,0,0,1-.325,1.718,5.243,5.243,0,0,1-.984,1.461A7.783,7.783,0,0,1,8.28-9.627Z" transform="translate(632.61 86.508)" fill="#545454"/><g transform="translate(20.527)"><path d="M3215.9,662.737v-22.42H3437.01v22.42" transform="translate(-3215.898 -617.637)" fill="none" stroke="#707070" stroke-width="1"/><g transform="translate(79.5)"><rect width="62" height="45" fill="#fff"/><path d="M1.815,0V-15.641H6.929a5.936,5.936,0,0,1,3.83,1.053,3.794,3.794,0,0,1,1.284,3.115,3.177,3.177,0,0,1-.623,1.939,4.039,4.039,0,0,1-1.7,1.305,3.627,3.627,0,0,1,2,1.348,3.869,3.869,0,0,1,.736,2.369A4.183,4.183,0,0,1,11.1-1.2,5.642,5.642,0,0,1,7.24,0ZM3.878-7.315v5.629H7.283a3.279,3.279,0,0,0,2.272-.747,2.622,2.622,0,0,0,.833-2.057q0-2.825-3.072-2.825Zm0-1.654H6.993a3.27,3.27,0,0,0,2.165-.677,2.267,2.267,0,0,0,.811-1.837,2.229,2.229,0,0,0-.752-1.875,3.7,3.7,0,0,0-2.288-.585H3.878ZM17.359,0H15.372V-16.5h1.987Zm2.653-5.919a6.865,6.865,0,0,1,.671-3.072A5.008,5.008,0,0,1,22.553-11.1a5.088,5.088,0,0,1,2.734-.741,4.9,4.9,0,0,1,3.84,1.644,6.323,6.323,0,0,1,1.466,4.372v.14a6.925,6.925,0,0,1-.65,3.045,4.935,4.935,0,0,1-1.858,2.1,5.146,5.146,0,0,1-2.777.752,4.889,4.889,0,0,1-3.83-1.644,6.291,6.291,0,0,1-1.466-4.351Zm2,.236a4.972,4.972,0,0,0,.9,3.1,2.871,2.871,0,0,0,2.4,1.171,2.853,2.853,0,0,0,2.406-1.187,5.437,5.437,0,0,0,.892-3.325,4.964,4.964,0,0,0-.908-3.1,2.886,2.886,0,0,0-2.412-1.187,2.854,2.854,0,0,0-2.374,1.171A5.4,5.4,0,0,0,22.011-5.683ZM37.748-1.407a2.863,2.863,0,0,0,1.858-.645,2.268,2.268,0,0,0,.881-1.611h1.88a3.6,3.6,0,0,1-.687,1.9A4.528,4.528,0,0,1,39.988-.322a4.882,4.882,0,0,1-2.24.537A4.788,4.788,0,0,1,33.972-1.37,6.311,6.311,0,0,1,32.57-5.7v-.333a7,7,0,0,1,.623-3.019,4.745,4.745,0,0,1,1.789-2.052,5.081,5.081,0,0,1,2.755-.73,4.662,4.662,0,0,1,3.25,1.171,4.185,4.185,0,0,1,1.38,3.04h-1.88a2.739,2.739,0,0,0-.854-1.853,2.657,2.657,0,0,0-1.9-.725,2.781,2.781,0,0,0-2.347,1.09,5.121,5.121,0,0,0-.833,3.153v.376a5.019,5.019,0,0,0,.827,3.094A2.8,2.8,0,0,0,37.748-1.407Zm10.1-3.975L46.6-4.082V0H44.612V-16.5H46.6v9.979L47.663-7.8l3.62-3.824H53.7L49.178-6.768,54.227,0H51.9Z" transform="translate(3 30)" fill="#727272"/></g></g><path d="M10.323-9.627A7.783,7.783,0,0,1,8.257-11.08a5.1,5.1,0,0,1-.976-1.461,4.365,4.365,0,0,1-.318-1.718,11.689,11.689,0,0,1,.288-2.255l.378-1.726a11.054,11.054,0,0,0,.3-2.089A2.025,2.025,0,0,0,7.213-21.9a4.71,4.71,0,0,0-2.959-.643H1.907V-24.9H4.284q4.147,0,5.351,1.34a4.383,4.383,0,0,1,1.2,3,8.477,8.477,0,0,1-.242,1.938l-.272,1.211-.257,1.317-.182.787a6.1,6.1,0,0,0-.106,1.1,3.356,3.356,0,0,0,.946,2.392,4.5,4.5,0,0,0,3.338,1h1.347v2.346H14.062a4.524,4.524,0,0,0-3.323.991,3.4,3.4,0,0,0-.961,2.46,5.166,5.166,0,0,0,.106,1.044l.182.8.257,1.317L10.6-.636A8.614,8.614,0,0,1,10.838,1.3a4.347,4.347,0,0,1-1.2,3q-1.2,1.324-5.351,1.324H1.907V3.285H4.253a4.71,4.71,0,0,0,2.959-.643A2.04,2.04,0,0,0,7.932,1.06a11.046,11.046,0,0,0-.3-2.074L7.25-2.74A11.689,11.689,0,0,1,6.963-5a4.365,4.365,0,0,1,.318-1.718,5.1,5.1,0,0,1,.976-1.461A7.783,7.783,0,0,1,10.323-9.627Z" transform="translate(0 173.24)" fill="#545454"/><path d="M46.5.711a2.375,2.375,0,0,1-1.741-.727,2.375,2.375,0,0,1-.727-1.741A2.355,2.355,0,0,1,44.767-3.5,2.4,2.4,0,0,1,46.5-4.223a2.4,2.4,0,0,1,1.733.719,2.355,2.355,0,0,1,.734,1.748,2.375,2.375,0,0,1-.727,1.741A2.375,2.375,0,0,1,46.5.711Zm18.6,0a2.375,2.375,0,0,1-1.741-.727,2.375,2.375,0,0,1-.727-1.741A2.355,2.355,0,0,1,63.37-3.5,2.4,2.4,0,0,1,65.1-4.223a2.4,2.4,0,0,1,1.733.719,2.355,2.355,0,0,1,.734,1.748,2.375,2.375,0,0,1-.727,1.741A2.375,2.375,0,0,1,65.1.711Zm18.6,0a2.375,2.375,0,0,1-1.741-.727,2.375,2.375,0,0,1-.727-1.741A2.355,2.355,0,0,1,81.973-3.5a2.4,2.4,0,0,1,1.733-.719,2.4,2.4,0,0,1,1.733.719,2.355,2.355,0,0,1,.734,1.748,2.375,2.375,0,0,1-.727,1.741A2.375,2.375,0,0,1,83.706.711Z" transform="translate(0 129.874)" fill="#545454"/><g transform="translate(280.527)"><path d="M3215.9,662.737v-22.42h202.312v22.42" transform="translate(-3215.896 -617.637)" fill="none" stroke="#707070" stroke-width="1"/><g transform="translate(59.5)"><rect width="83" height="45" fill="#fff"/><path d="M-27.9-6.9h-6.47V-1.61h7.516V0h-9.485V-14.93h9.382v1.62h-7.414v4.8h6.47Zm5.26,6.9h-1.9V-15.75h1.9ZM-15,.205a4.848,4.848,0,0,1-3.671-1.482A5.5,5.5,0,0,1-20.082-5.24v-.349a6.658,6.658,0,0,1,.631-2.948,4.919,4.919,0,0,1,1.764-2.03,4.434,4.434,0,0,1,2.456-.733,4.155,4.155,0,0,1,3.363,1.425,6.171,6.171,0,0,1,1.2,4.081V-5h-7.516a3.944,3.944,0,0,0,.959,2.651,3.014,3.014,0,0,0,2.333,1.01,3.3,3.3,0,0,0,1.7-.41,4.277,4.277,0,0,0,1.22-1.087l1.159.9A4.659,4.659,0,0,1-15,.205Zm-.236-9.946a2.53,2.53,0,0,0-1.928.836,4.062,4.062,0,0,0-.964,2.343h5.558v-.144a3.613,3.613,0,0,0-.779-2.24A2.382,2.382,0,0,0-15.232-9.741Zm8.542-1.354.051,1.23A4.1,4.1,0,0,1-3.348-11.3,3.172,3.172,0,0,1-.179-9.516a4.2,4.2,0,0,1,1.441-1.292,4.255,4.255,0,0,1,2.1-.492q3.65,0,3.712,3.866V0h-1.9V-7.321A2.548,2.548,0,0,0,4.63-9.1,2.393,2.393,0,0,0,2.8-9.69a2.515,2.515,0,0,0-1.753.631,2.558,2.558,0,0,0-.81,1.7V0H-1.666V-7.27A2.117,2.117,0,0,0-4.035-9.69,2.538,2.538,0,0,0-6.588-8.1V0h-1.9V-11.095ZM14.535.205a4.848,4.848,0,0,1-3.671-1.482A5.5,5.5,0,0,1,9.449-5.24v-.349a6.658,6.658,0,0,1,.631-2.948,4.919,4.919,0,0,1,1.764-2.03A4.434,4.434,0,0,1,14.3-11.3a4.155,4.155,0,0,1,3.363,1.425,6.171,6.171,0,0,1,1.2,4.081V-5H11.346A3.944,3.944,0,0,0,12.3-2.353a3.014,3.014,0,0,0,2.333,1.01,3.3,3.3,0,0,0,1.7-.41A4.277,4.277,0,0,0,17.56-2.84l1.159.9A4.659,4.659,0,0,1,14.535.205ZM14.3-9.741a2.53,2.53,0,0,0-1.928.836,4.062,4.062,0,0,0-.964,2.343h5.558v-.144a3.613,3.613,0,0,0-.779-2.24A2.382,2.382,0,0,0,14.3-9.741Zm8.552-1.354L22.912-9.7a4.043,4.043,0,0,1,3.322-1.6q3.517,0,3.548,3.968V0h-1.9V-7.342a2.554,2.554,0,0,0-.549-1.774A2.2,2.2,0,0,0,25.66-9.69a2.738,2.738,0,0,0-1.62.492,3.342,3.342,0,0,0-1.087,1.292V0h-1.9V-11.095Zm12.366-2.687v2.687h2.071v1.466H35.217v6.88a1.537,1.537,0,0,0,.277,1,1.166,1.166,0,0,0,.943.333,4.593,4.593,0,0,0,.9-.123V0a5.5,5.5,0,0,1-1.456.205,2.362,2.362,0,0,1-1.917-.769,3.3,3.3,0,0,1-.646-2.184v-6.88H31.3v-1.466h2.02v-2.687Z" transform="translate(41 31)" fill="#727272"/></g></g><g transform="translate(517.685)"><path d="M3215.9,662.737v-22.42h99.47v22.42" transform="translate(-3215.897 -617.637)" fill="none" stroke="#707070" stroke-width="1"/><g transform="translate(6.931)"><rect width="85.813" height="45.1" fill="#fff"/><path d="M-34.279-14.93-29.4-2.748l4.881-12.182h2.553V0h-1.969V-5.814l.185-6.275L-28.649,0h-1.507l-4.891-12.059.195,6.245V0h-1.969V-14.93Zm14.991,9.28a6.553,6.553,0,0,1,.641-2.933,4.781,4.781,0,0,1,1.784-2.01,4.857,4.857,0,0,1,2.61-.708,4.679,4.679,0,0,1,3.666,1.569,6.036,6.036,0,0,1,1.4,4.173v.133a6.61,6.61,0,0,1-.62,2.907,4.71,4.71,0,0,1-1.774,2,4.913,4.913,0,0,1-2.651.718,4.667,4.667,0,0,1-3.656-1.569,6.005,6.005,0,0,1-1.4-4.153Zm1.907.226a4.746,4.746,0,0,0,.856,2.963,2.74,2.74,0,0,0,2.292,1.118,2.724,2.724,0,0,0,2.3-1.133,5.19,5.19,0,0,0,.851-3.174,4.738,4.738,0,0,0-.866-2.958,2.755,2.755,0,0,0-2.3-1.133,2.724,2.724,0,0,0-2.266,1.118A5.152,5.152,0,0,0-17.38-5.424ZM-7.27-5.64A6.5,6.5,0,0,1-6.06-9.746,3.826,3.826,0,0,1-2.892-11.3,3.848,3.848,0,0,1,.195-9.967V-15.75h1.9V0H.349L.256-1.189A3.863,3.863,0,0,1-2.912.205,3.789,3.789,0,0,1-6.055-1.374,6.573,6.573,0,0,1-7.27-5.5Zm1.9.215a4.921,4.921,0,0,0,.779,2.953A2.519,2.519,0,0,0-2.44-1.4,2.767,2.767,0,0,0,.195-3.025v-5.1A2.789,2.789,0,0,0-2.42-9.69,2.531,2.531,0,0,0-4.594-8.613,5.418,5.418,0,0,0-5.373-5.424ZM7.1,0H5.2V-11.095H7.1ZM5.045-14.038a1.132,1.132,0,0,1,.282-.779,1.059,1.059,0,0,1,.836-.318A1.075,1.075,0,0,1,7-14.817a1.12,1.12,0,0,1,.287.779A1.084,1.084,0,0,1,7-13.269a1.1,1.1,0,0,1-.841.308,1.078,1.078,0,0,1-.836-.308A1.1,1.1,0,0,1,5.045-14.038ZM10.767,0V-9.628H9.013v-1.466h1.753v-.943a3.854,3.854,0,0,1,1.061-2.892,4.115,4.115,0,0,1,3-1.036,9.031,9.031,0,0,1,2.9.625l-.318,1.6a6.572,6.572,0,0,0-2.44-.513,2.388,2.388,0,0,0-1.759.549,2.262,2.262,0,0,0-.538,1.646v.964H14.94v1.466H12.674V0Zm7.906,0H16.765V-11.095h1.907Zm7.69.205a4.848,4.848,0,0,1-3.671-1.482A5.5,5.5,0,0,1,21.277-5.24v-.349a6.658,6.658,0,0,1,.631-2.948,4.919,4.919,0,0,1,1.764-2.03,4.434,4.434,0,0,1,2.456-.733A4.155,4.155,0,0,1,29.49-9.875a6.171,6.171,0,0,1,1.2,4.081V-5H23.174a3.944,3.944,0,0,0,.959,2.651,3.014,3.014,0,0,0,2.333,1.01,3.3,3.3,0,0,0,1.7-.41,4.277,4.277,0,0,0,1.22-1.087l1.159.9A4.659,4.659,0,0,1,26.363.205Zm-.236-9.946a2.53,2.53,0,0,0-1.928.836,4.062,4.062,0,0,0-.964,2.343h5.558v-.144a3.613,3.613,0,0,0-.779-2.24A2.382,2.382,0,0,0,26.127-9.741Zm12.12.349a5.685,5.685,0,0,0-.933-.072,2.5,2.5,0,0,0-2.533,1.589V0h-1.9V-11.095H34.73l.031,1.282A2.954,2.954,0,0,1,37.406-11.3a1.938,1.938,0,0,1,.841.144Z" transform="translate(42.122 29.142)" fill="#727272"/></g></g></g><g transform="translate(665 191.66)"><path d="M9.448,0H1.063V-1.169l4.43-4.922A10.524,10.524,0,0,0,6.851-7.906a3.029,3.029,0,0,0,.374-1.446A2.3,2.3,0,0,0,6.618-11,2.12,2.12,0,0,0,5-11.637a2.511,2.511,0,0,0-1.885.69,2.635,2.635,0,0,0-.672,1.92H.817a3.774,3.774,0,0,1,1.138-2.856A4.219,4.219,0,0,1,5-12.973a4.054,4.054,0,0,1,2.821.936A3.193,3.193,0,0,1,8.859-9.545q0,1.89-2.408,4.5L3.023-1.327H9.448ZM21.665-.94A3.454,3.454,0,0,1,18.879.176a2.956,2.956,0,0,1-2.316-.883,3.823,3.823,0,0,1-.8-2.615V-9.51h1.626v6.144q0,2.162,1.758,2.162a2.434,2.434,0,0,0,2.479-1.389V-9.51h1.626V0H21.7Zm5.59-8.569.053,1.2a3.465,3.465,0,0,1,2.848-1.371q3.015,0,3.041,3.4V0H31.57V-6.293a2.189,2.189,0,0,0-.47-1.521,1.884,1.884,0,0,0-1.437-.492,2.347,2.347,0,0,0-1.389.422,2.865,2.865,0,0,0-.932,1.107V0H25.717V-9.51Zm8,4.676a5.571,5.571,0,0,1,1.037-3.52,3.28,3.28,0,0,1,2.716-1.332,3.3,3.3,0,0,1,2.646,1.143V-13.5h1.626V0H41.783L41.7-1.02a3.311,3.311,0,0,1-2.716,1.2,3.248,3.248,0,0,1-2.694-1.354,5.634,5.634,0,0,1-1.042-3.533Zm1.626.185a4.218,4.218,0,0,0,.668,2.531,2.159,2.159,0,0,0,1.846.914,2.372,2.372,0,0,0,2.259-1.389V-6.961A2.39,2.39,0,0,0,39.41-8.306a2.17,2.17,0,0,0-1.863.923A4.644,4.644,0,0,0,36.879-4.649ZM49.746.176A4.155,4.155,0,0,1,46.6-1.094a4.714,4.714,0,0,1-1.213-3.4v-.3a5.707,5.707,0,0,1,.541-2.527,4.217,4.217,0,0,1,1.512-1.74,3.8,3.8,0,0,1,2.1-.628,3.562,3.562,0,0,1,2.883,1.222,5.289,5.289,0,0,1,1.028,3.5v.677H47.013a3.38,3.38,0,0,0,.822,2.272,2.583,2.583,0,0,0,2,.866A2.832,2.832,0,0,0,51.293-1.5a3.666,3.666,0,0,0,1.046-.932l.993.773A3.993,3.993,0,0,1,49.746.176Zm-.2-8.525a2.169,2.169,0,0,0-1.652.716,3.482,3.482,0,0,0-.826,2.008h4.764v-.123a3.1,3.1,0,0,0-.668-1.92A2.042,2.042,0,0,0,49.544-8.35Zm10.389.3a4.873,4.873,0,0,0-.8-.062A2.143,2.143,0,0,0,56.962-6.75V0H55.336V-9.51h1.582l.026,1.1a2.532,2.532,0,0,1,2.268-1.274,1.661,1.661,0,0,1,.721.123Zm7.031,5.528a1.2,1.2,0,0,0-.5-1.024,4.78,4.78,0,0,0-1.731-.628,8.186,8.186,0,0,1-1.96-.633A2.788,2.788,0,0,1,61.7-5.687,2.1,2.1,0,0,1,61.356-6.9a2.467,2.467,0,0,1,.989-1.978,3.861,3.861,0,0,1,2.527-.809,3.974,3.974,0,0,1,2.624.835A2.652,2.652,0,0,1,68.5-6.715H66.867A1.468,1.468,0,0,0,66.3-7.866a2.124,2.124,0,0,0-1.428-.483,2.223,2.223,0,0,0-1.389.387,1.217,1.217,0,0,0-.5,1.011.986.986,0,0,0,.466.888,5.731,5.731,0,0,0,1.683.571,8.77,8.77,0,0,1,1.973.65,2.878,2.878,0,0,1,1.121.91,2.237,2.237,0,0,1,.365,1.3A2.434,2.434,0,0,1,67.57-.593a4.277,4.277,0,0,1-2.646.769,4.789,4.789,0,0,1-2.021-.4,3.288,3.288,0,0,1-1.375-1.129,2.722,2.722,0,0,1-.5-1.569h1.626a1.683,1.683,0,0,0,.655,1.3,2.54,2.54,0,0,0,1.613.479,2.622,2.622,0,0,0,1.481-.374A1.148,1.148,0,0,0,66.964-2.522Zm7.559,1.371a2.342,2.342,0,0,0,1.521-.527A1.855,1.855,0,0,0,76.764-3H78.3a2.949,2.949,0,0,1-.562,1.556A3.7,3.7,0,0,1,76.355-.264a3.994,3.994,0,0,1-1.833.439,3.918,3.918,0,0,1-3.089-1.3,5.163,5.163,0,0,1-1.147-3.546v-.272a5.725,5.725,0,0,1,.51-2.47,3.883,3.883,0,0,1,1.463-1.679,4.157,4.157,0,0,1,2.254-.6,3.814,3.814,0,0,1,2.659.958A3.424,3.424,0,0,1,78.3-6.24H76.764a2.241,2.241,0,0,0-.7-1.516,2.174,2.174,0,0,0-1.551-.593,2.276,2.276,0,0,0-1.92.892,4.19,4.19,0,0,0-.681,2.58v.308a4.106,4.106,0,0,0,.677,2.531A2.287,2.287,0,0,0,74.522-1.151ZM79.7-4.843a5.617,5.617,0,0,1,.549-2.514,4.1,4.1,0,0,1,1.529-1.723,4.163,4.163,0,0,1,2.237-.606,4.01,4.01,0,0,1,3.142,1.345,5.174,5.174,0,0,1,1.2,3.577v.114a5.666,5.666,0,0,1-.532,2.492A4.038,4.038,0,0,1,86.3-.439a4.211,4.211,0,0,1-2.272.615A4,4,0,0,1,80.9-1.169a5.147,5.147,0,0,1-1.2-3.56Zm1.635.193a4.068,4.068,0,0,0,.734,2.54,2.349,2.349,0,0,0,1.964.958A2.335,2.335,0,0,0,86-2.123a4.449,4.449,0,0,0,.729-2.72,4.061,4.061,0,0,0-.743-2.536,2.361,2.361,0,0,0-1.973-.971,2.335,2.335,0,0,0-1.942.958A4.416,4.416,0,0,0,81.334-4.649Zm13.658-3.4a4.873,4.873,0,0,0-.8-.062A2.143,2.143,0,0,0,92.021-6.75V0H90.4V-9.51h1.582L92-8.411a2.532,2.532,0,0,1,2.268-1.274,1.661,1.661,0,0,1,.721.123ZM100.266.176a4.155,4.155,0,0,1-3.146-1.27,4.714,4.714,0,0,1-1.213-3.4v-.3a5.707,5.707,0,0,1,.541-2.527,4.217,4.217,0,0,1,1.512-1.74,3.8,3.8,0,0,1,2.1-.628,3.562,3.562,0,0,1,2.883,1.222,5.289,5.289,0,0,1,1.028,3.5v.677H97.532a3.38,3.38,0,0,0,.822,2.272,2.583,2.583,0,0,0,2,.866,2.832,2.832,0,0,0,1.459-.352,3.666,3.666,0,0,0,1.046-.932l.993.773A3.993,3.993,0,0,1,100.266.176Zm-.2-8.525a2.169,2.169,0,0,0-1.652.716,3.482,3.482,0,0,0-.826,2.008h4.764v-.123a3.1,3.1,0,0,0-.668-1.92A2.042,2.042,0,0,0,100.063-8.35Zm11.329,5.827a1.2,1.2,0,0,0-.5-1.024,4.78,4.78,0,0,0-1.731-.628,8.186,8.186,0,0,1-1.96-.633,2.788,2.788,0,0,1-1.072-.879,2.1,2.1,0,0,1-.347-1.213,2.467,2.467,0,0,1,.989-1.978,3.861,3.861,0,0,1,2.527-.809,3.974,3.974,0,0,1,2.624.835,2.652,2.652,0,0,1,1.006,2.136H111.3a1.468,1.468,0,0,0-.567-1.151A2.124,2.124,0,0,0,109.3-8.35a2.223,2.223,0,0,0-1.389.387,1.217,1.217,0,0,0-.5,1.011.986.986,0,0,0,.466.888,5.731,5.731,0,0,0,1.683.571,8.77,8.77,0,0,1,1.973.65,2.878,2.878,0,0,1,1.121.91,2.237,2.237,0,0,1,.365,1.3A2.434,2.434,0,0,1,112-.593a4.277,4.277,0,0,1-2.646.769,4.789,4.789,0,0,1-2.021-.4,3.288,3.288,0,0,1-1.375-1.129,2.722,2.722,0,0,1-.5-1.569h1.626a1.683,1.683,0,0,0,.655,1.3,2.54,2.54,0,0,0,1.613.479,2.622,2.622,0,0,0,1.481-.374A1.148,1.148,0,0,0,111.393-2.522Z" transform="translate(0 50)" fill="#727272"/><path d="M0,22.42V0H37.781V22.42" transform="translate(76.281 22.42) rotate(180)" fill="none" stroke="#707070" stroke-width="1"/></g><g transform="translate(284 -97.34)"><path d="M9.448,0H1.063V-1.169l4.43-4.922A10.524,10.524,0,0,0,6.851-7.906a3.029,3.029,0,0,0,.374-1.446A2.3,2.3,0,0,0,6.618-11,2.12,2.12,0,0,0,5-11.637a2.511,2.511,0,0,0-1.885.69,2.635,2.635,0,0,0-.672,1.92H.817a3.774,3.774,0,0,1,1.138-2.856A4.219,4.219,0,0,1,5-12.973a4.054,4.054,0,0,1,2.821.936A3.193,3.193,0,0,1,8.859-9.545q0,1.89-2.408,4.5L3.023-1.327H9.448ZM15.4-4.834a5.571,5.571,0,0,1,1.037-3.52,3.28,3.28,0,0,1,2.716-1.332A3.3,3.3,0,0,1,21.8-8.543V-13.5h1.626V0H21.929L21.85-1.02a3.311,3.311,0,0,1-2.716,1.2A3.248,3.248,0,0,1,16.44-1.178,5.634,5.634,0,0,1,15.4-4.711Zm1.626.185a4.218,4.218,0,0,0,.668,2.531,2.159,2.159,0,0,0,1.846.914A2.372,2.372,0,0,0,21.8-2.593V-6.961a2.39,2.39,0,0,0-2.241-1.345,2.17,2.17,0,0,0-1.863.923A4.644,4.644,0,0,0,17.024-4.649ZM31.816,0a3.416,3.416,0,0,1-.229-1A3.628,3.628,0,0,1,28.881.176a3.357,3.357,0,0,1-2.307-.8,2.573,2.573,0,0,1-.9-2.017A2.688,2.688,0,0,1,26.8-4.944a5.325,5.325,0,0,1,3.177-.822h1.582v-.747a1.826,1.826,0,0,0-.51-1.358,2.049,2.049,0,0,0-1.5-.505,2.371,2.371,0,0,0-1.459.439A1.3,1.3,0,0,0,27.5-6.873H25.866a2.244,2.244,0,0,1,.505-1.375A3.449,3.449,0,0,1,27.743-9.3a4.613,4.613,0,0,1,1.9-.387,3.759,3.759,0,0,1,2.575.822A2.964,2.964,0,0,1,33.188-6.6v4.377a5.351,5.351,0,0,0,.334,2.083V0Zm-2.7-1.239a2.858,2.858,0,0,0,1.45-.4,2.392,2.392,0,0,0,.993-1.028V-4.614H30.287q-2.988,0-2.988,1.749a1.48,1.48,0,0,0,.51,1.2A1.959,1.959,0,0,0,29.118-1.239ZM41.273-2.522a1.2,1.2,0,0,0-.5-1.024,4.78,4.78,0,0,0-1.731-.628,8.186,8.186,0,0,1-1.96-.633,2.788,2.788,0,0,1-1.072-.879A2.1,2.1,0,0,1,35.666-6.9a2.467,2.467,0,0,1,.989-1.978,3.861,3.861,0,0,1,2.527-.809,3.974,3.974,0,0,1,2.624.835,2.652,2.652,0,0,1,1.006,2.136H41.177a1.468,1.468,0,0,0-.567-1.151,2.124,2.124,0,0,0-1.428-.483,2.223,2.223,0,0,0-1.389.387,1.217,1.217,0,0,0-.5,1.011.986.986,0,0,0,.466.888,5.731,5.731,0,0,0,1.683.571,8.77,8.77,0,0,1,1.973.65,2.878,2.878,0,0,1,1.121.91,2.237,2.237,0,0,1,.365,1.3A2.434,2.434,0,0,1,41.88-.593a4.277,4.277,0,0,1-2.646.769,4.789,4.789,0,0,1-2.021-.4,3.288,3.288,0,0,1-1.375-1.129,2.722,2.722,0,0,1-.5-1.569h1.626a1.683,1.683,0,0,0,.655,1.3,2.54,2.54,0,0,0,1.613.479,2.622,2.622,0,0,0,1.481-.374A1.148,1.148,0,0,0,41.273-2.522Zm5.37-5.836a3.457,3.457,0,0,1,2.813-1.327q3.015,0,3.041,3.4V0H50.871V-6.293a2.189,2.189,0,0,0-.47-1.521,1.884,1.884,0,0,0-1.437-.492,2.347,2.347,0,0,0-1.389.422,2.865,2.865,0,0,0-.932,1.107V0H45.018V-13.5h1.626ZM58.878.176a4.155,4.155,0,0,1-3.146-1.27,4.714,4.714,0,0,1-1.213-3.4v-.3a5.707,5.707,0,0,1,.541-2.527,4.217,4.217,0,0,1,1.512-1.74,3.8,3.8,0,0,1,2.1-.628,3.562,3.562,0,0,1,2.883,1.222,5.289,5.289,0,0,1,1.028,3.5v.677H56.145a3.38,3.38,0,0,0,.822,2.272,2.583,2.583,0,0,0,2,.866A2.832,2.832,0,0,0,60.425-1.5a3.666,3.666,0,0,0,1.046-.932l.993.773A3.993,3.993,0,0,1,58.878.176Zm-.2-8.525a2.169,2.169,0,0,0-1.652.716A3.482,3.482,0,0,0,56.2-5.625h4.764v-.123a3.1,3.1,0,0,0-.668-1.92A2.042,2.042,0,0,0,58.676-8.35ZM70-2.522a1.2,1.2,0,0,0-.5-1.024,4.78,4.78,0,0,0-1.731-.628,8.186,8.186,0,0,1-1.96-.633,2.788,2.788,0,0,1-1.072-.879A2.1,2.1,0,0,1,64.4-6.9a2.467,2.467,0,0,1,.989-1.978,3.861,3.861,0,0,1,2.527-.809,3.974,3.974,0,0,1,2.624.835,2.652,2.652,0,0,1,1.006,2.136H69.908a1.468,1.468,0,0,0-.567-1.151,2.124,2.124,0,0,0-1.428-.483,2.223,2.223,0,0,0-1.389.387,1.217,1.217,0,0,0-.5,1.011.986.986,0,0,0,.466.888,5.731,5.731,0,0,0,1.683.571,8.77,8.77,0,0,1,1.973.65,2.878,2.878,0,0,1,1.121.91,2.237,2.237,0,0,1,.365,1.3,2.434,2.434,0,0,1-1.02,2.043,4.277,4.277,0,0,1-2.646.769,4.789,4.789,0,0,1-2.021-.4,3.288,3.288,0,0,1-1.375-1.129,2.722,2.722,0,0,1-.5-1.569H65.7a1.683,1.683,0,0,0,.655,1.3,2.54,2.54,0,0,0,1.613.479,2.622,2.622,0,0,0,1.481-.374A1.148,1.148,0,0,0,70-2.522Z" transform="translate(645 339)" fill="#727272"/><path d="M3215.9,662.737v-22.42h37.781v22.42" transform="translate(3916.178 951.737) rotate(180)" fill="none" stroke="#707070" stroke-width="1"/></g></g></svg>